<?xml version="1.0" encoding="UTF-8" standalone="no"?>
<!DOCTYPE svg PUBLIC "-//W3C//DTD SVG 1.1//EN" "http://www.w3.org/Graphics/SVG/1.1/DTD/svg11.dtd">
<svg version="1.1" xmlns="http://www.w3.org/2000/svg" xmlns:xlink="http://www.w3.org/1999/xlink" preserveAspectRatio="xMidYMid meet" viewBox="0 0 640 640" width="640" height="640"><defs><path d="M173.48 281.89L308.27 303.49L461.31 365.56" id="a1zhzDaWTt"></path><path d="M461.31 363.11L304.6 413.5L172.99 413.5" id="a3MM4O1eZ"></path><path d="M173.48 149.45L308.27 171.06L461.31 233.12" id="f1WGJ0Ohg9"></path><path d="M464.41 233.22L313.05 226.48L176.09 283.62" id="cluXipWtf"></path><path d="M312.7 29.28L456.86 98.8" id="c7UIHSkQE"></path><path d="" id="axdh2trjn"></path><path d="M486.31 233.12C486.31 246.92 475.1 258.12 461.31 258.12C447.51 258.12 436.31 246.92 436.31 233.12C436.31 219.33 447.51 208.12 461.31 208.12C475.1 208.12 486.31 219.33 486.31 233.12Z" id="b2CvoY1S0x"></path><path d="M202.39 283.06C202.39 296.86 191.19 308.06 177.39 308.06C163.6 308.06 152.39 296.86 152.39 283.06C152.39 269.26 163.6 258.06 177.39 258.06C191.19 258.06 202.39 269.26 202.39 283.06Z" id="ih9XIHlgW"></path><path d="M483.61 364.1C483.61 377.9 472.41 389.1 458.61 389.1C444.82 389.1 433.61 377.9 433.61 364.1C433.61 350.31 444.82 339.1 458.61 339.1C472.41 339.1 483.61 350.31 483.61 364.1Z" id="a90DazbAq"></path><path d="M198.48 413.3C198.48 427.1 187.28 438.3 173.48 438.3C159.68 438.3 148.48 427.1 148.48 413.3C148.48 399.51 159.68 388.3 173.48 388.3C187.28 388.3 198.48 399.51 198.48 413.3Z" id="c464RJZRF"></path><path d="M337.7 29.28C337.7 43.08 326.5 54.28 312.7 54.28C298.9 54.28 287.7 43.08 287.7 29.28C287.7 15.48 298.9 4.28 312.7 4.28C326.5 4.28 337.7 15.48 337.7 29.28Z" id="d1TOTmHdXV"></path><path d="M464.41 100.78L313.05 94.04L176.09 151.18" id="e5ntih5RGZ"></path><path d="" id="bkLDYkoMC"></path><path d="M486.31 100.68C486.31 114.48 475.1 125.68 461.31 125.68C447.51 125.68 436.31 114.48 436.31 100.68C436.31 86.89 447.51 75.68 461.31 75.68C475.1 75.68 486.31 86.89 486.31 100.68Z" id="cwQuUSGoR"></path><path d="M202.39 150.54C202.39 164.34 191.19 175.54 177.39 175.54C163.6 175.54 152.39 164.34 152.39 150.54C152.39 136.75 163.6 125.54 177.39 125.54C191.19 125.54 202.39 136.75 202.39 150.54Z" id="b1zLKbtkJ"></path></defs><g><g><g><use xlink:href="#a1zhzDaWTt" opacity="1" fill="#10396b" fill-opacity="1"></use><g><use xlink:href="#a1zhzDaWTt" opacity="1" fill-opacity="0" stroke="#2980d1" stroke-width="50" stroke-opacity="1"></use></g></g><g><g><use xlink:href="#a3MM4O1eZ" opacity="1" fill-opacity="0" stroke="#00c3c8" stroke-width="50" stroke-opacity="1"></use></g></g><g><use xlink:href="#f1WGJ0Ohg9" opacity="1" fill="#10396b" fill-opacity="1"></use><g><use xlink:href="#f1WGJ0Ohg9" opacity="1" fill-opacity="0" stroke="#2980d1" stroke-width="50" stroke-opacity="1"></use></g></g><g><g><use xlink:href="#cluXipWtf" opacity="1" fill-opacity="0" stroke="#00c3c8" stroke-width="50" stroke-opacity="1"></use></g></g><g><use xlink:href="#c7UIHSkQE" opacity="1" fill="#10396b" fill-opacity="1"></use><g><use xlink:href="#c7UIHSkQE" opacity="1" fill-opacity="0" stroke="#2980d1" stroke-width="50" stroke-opacity="1"></use></g></g><g><use xlink:href="#axdh2trjn" opacity="1" fill="#10396b" fill-opacity="1"></use><g><use xlink:href="#axdh2trjn" opacity="1" fill-opacity="0" stroke="#2980d1" stroke-width="50" stroke-opacity="1"></use></g></g><g><use xlink:href="#b2CvoY1S0x" opacity="1" fill="#00c3c8" fill-opacity="1"></use></g><g><use xlink:href="#ih9XIHlgW" opacity="1" fill="#00c3c8" fill-opacity="1"></use></g><g><use xlink:href="#a90DazbAq" opacity="1" fill="#00c3c8" fill-opacity="1"></use></g><g><use xlink:href="#c464RJZRF" opacity="1" fill="#00c3c8" fill-opacity="1"></use></g><g><use xlink:href="#d1TOTmHdXV" opacity="1" fill="#2980d1" fill-opacity="1"></use></g><g><g><use xlink:href="#e5ntih5RGZ" opacity="1" fill-opacity="0" stroke="#00c3c8" stroke-width="50" stroke-opacity="1"></use></g></g><g><use xlink:href="#bkLDYkoMC" opacity="1" fill="#10396b" fill-opacity="1"></use><g><use xlink:href="#bkLDYkoMC" opacity="1" fill-opacity="0" stroke="#2980d1" stroke-width="50" stroke-opacity="1"></use></g></g><g><use xlink:href="#cwQuUSGoR" opacity="1" fill="#00c3c8" fill-opacity="1"></use></g><g><use xlink:href="#b1zLKbtkJ" opacity="1" fill="#00c3c8" fill-opacity="1"></use></g></g></g></svg>